<?xml version="1.0" encoding="utf-8"?>
<!-- Generator: Adobe Illustrator 28.0.0, SVG Export Plug-In . SVG Version: 6.00 Build 0)  -->
<svg version="1.1" id="Capa_1" xmlns="http://www.w3.org/2000/svg" xmlns:xlink="http://www.w3.org/1999/xlink" x="0px" y="0px"
	 viewBox="0 0 166 166" style="enable-background:new 0 0 166 166;" xml:space="preserve">
<style type="text/css">
	.st0{fill:url(#SVGID_1_);}
	.st1{fill:none;}
	.st2{fill:#FFFFFF;}
	.st3{fill:url(#SVGID_00000112600424701291130060000013188902463128795047_);}
	.st4{fill:url(#SVGID_00000045606596059868016890000014345265264935231674_);}
</style>
<g>
	<g>
		
			<linearGradient id="SVGID_1_" gradientUnits="userSpaceOnUse" x1="1.1" y1="707.55" x2="164.9038" y2="707.55" gradientTransform="matrix(1 0 0 1 0 -624)">
			<stop  offset="0" style="stop-color:#095BA6"/>
			<stop  offset="0.5" style="stop-color:#C7D8E8"/>
			<stop  offset="1" style="stop-color:#095BA6"/>
		</linearGradient>
		<path class="st0" d="M6.9,111.1l-5.6-4.5c4-5,11.2-14.1,22.2-23.1C9.5,72,1.8,61.1,1.1,60.1L7,56c0.2,0.2,8,11.4,22.4,22.7
			c16-11.7,38.6-22,68.8-22c39.7,0,55.6,10.3,61.6,16.4c3.3,3.4,5.2,7.2,5.1,10.3c0,1.1-1.6,26.8-70.1,26.8
			c-27.6,0-49.7-10.7-65.5-22.3C18.1,97,10.8,106.1,6.9,111.1z M35.5,83.3C50.3,93.7,70.4,103,94.8,103c50.9,0,62.7-14.6,62.9-19.8
			c0-0.5-0.5-2.4-3.1-5.1c-4.2-4.3-18-14.3-56.4-14.3C71.1,63.9,50.5,72.9,35.5,83.3z"/>
	</g>
	<path class="st1" d="M83.9,51.3L83.9,51.3L83.9,51.3L83.9,51.3L83.9,51.3z"/>
	<path class="st2" d="M111.2,55.4L111.2,55.4C111.3,55.5,111.2,55.4,111.2,55.4z"/>
	
		<linearGradient id="SVGID_00000155113888776502933240000000374147166483196847_" gradientUnits="userSpaceOnUse" x1="72.2" y1="706.9" x2="149.6" y2="706.9" gradientTransform="matrix(1 0 0 1 0 -624)">
		<stop  offset="0" style="stop-color:#F7E826"/>
		<stop  offset="1" style="stop-color:#ED6F54"/>
	</linearGradient>
	<path style="fill:url(#SVGID_00000155113888776502933240000000374147166483196847_);" d="M113.8,51.5c16.1,1.4,28.7,15,28.7,31.4
		c0,17.4-14.1,31.5-31.5,31.5s-31.5-14.1-31.5-31.5c0-9.9,4.5-19,12.4-25L91.1,57c-2.3-0.6-4.7-1-7.2-1h-0.8
		c-6.9,7.2-10.9,16.7-10.9,26.9c0,21.4,17.4,38.7,38.7,38.7s38.7-17.4,38.7-38.7s-17.4-38.7-38.7-38.7c-1.3,0-7,0-8.3,0.2
		C107.3,45.9,110.9,48.5,113.8,51.5z"/>
	<g>
		
			<linearGradient id="SVGID_00000016073810524912127170000013116783188919304125_" gradientUnits="userSpaceOnUse" x1="45.1799" y1="707.0187" x2="122.4756" y2="707.0187" gradientTransform="matrix(1 0 0 1 0 -624)">
			<stop  offset="0" style="stop-color:#F7E826"/>
			<stop  offset="1" style="stop-color:#ED6F54"/>
		</linearGradient>
		<path style="fill:url(#SVGID_00000016073810524912127170000013116783188919304125_);" d="M110,111.6c16-14,16.8-41.6,1.3-56.1
			c-22.8-24.4-67.2-6.4-66.1,27.3c-0.1,22.8,23.3,41.2,45.9,38.8c-4.1-2.2-7.4-4.6-10-7.4C35.3,108.6,49.3,40,93.8,52.9l0,0
			c23.2,6.7,29.3,40.7,9.2,54.9c0.1,0.2-3.1,2.3-3.1,2.3L110,111.6z"/>
	</g>
</g>
</svg>
