<?xml version="1.0" encoding="utf-8"?>
<!-- Generator: Adobe Illustrator 28.0.0, SVG Export Plug-In . SVG Version: 6.00 Build 0)  -->
<svg version="1.1" id="Capa_1" xmlns="http://www.w3.org/2000/svg" xmlns:xlink="http://www.w3.org/1999/xlink" x="0px" y="0px"
	 viewBox="0 0 1080 546.2" style="enable-background:new 0 0 1080 546.2;" xml:space="preserve">
<style type="text/css">
	.st0{fill:url(#SVGID_1_);}
	.st1{fill:none;}
	.st2{fill:#FFFFFF;}
	.st3{fill:url(#SVGID_00000049205037546457519710000009551250136578316171_);}
	.st4{fill:url(#SVGID_00000021101875314709615100000014670095786463274942_);}
</style>
<g>
	<g>
		<linearGradient id="SVGID_1_" gradientUnits="userSpaceOnUse" x1="20.7447" y1="276.5835" x2="1059.2552" y2="276.5835">
			<stop  offset="0" style="stop-color:#095BA6"/>
			<stop  offset="0.5" style="stop-color:#C7D8E8"/>
			<stop  offset="1" style="stop-color:#095BA6"/>
		</linearGradient>
		<path class="st0" d="M57.5,451l-35.8-28.5c25.1-31.6,70.9-89.2,140.5-146.7C73.8,203.5,24.9,134.2,20.7,128.2l37.6-26
			c1,1.5,51,72.1,141.8,144.2c101.6-73.9,244.7-139.8,436.3-139.8c251.6,0,352.6,65.4,390.4,104.3c21.1,21.8,32.9,45.6,32.3,65.3
			c-0.2,6.9-9.9,169.7-444.4,169.7c-174.9,0-315.1-68-415.3-141.1C128.5,361.6,82.3,419.8,57.5,451z M238.9,275.3
			c93.6,65.6,221,124.8,375.9,124.8c322.5,0,397.8-92.8,398.7-125.3c0.1-3-3.3-15.5-19.5-32.1c-26.4-27.2-114.2-90.4-357.5-90.4
			C464.5,152.3,333.8,209.3,238.9,275.3z"/>
	</g>
	<path class="st1" d="M545.7,72.4L545.7,72.4c0.1,0,0.1,0,0.1,0C545.8,72.4,545.7,72.4,545.7,72.4C545.7,72.4,545.7,72.4,545.7,72.4
		z"/>
	<path class="st2" d="M718.7,98.2l0.8,0.7C719.2,98.6,718.9,98.4,718.7,98.2z"/>
	
		<linearGradient id="SVGID_00000020380504622377709320000012667957857315289736_" gradientUnits="userSpaceOnUse" x1="471.4966" y1="272.311" x2="962.7469" y2="272.311">
		<stop  offset="0" style="stop-color:#F7E826"/>
		<stop  offset="1" style="stop-color:#ED6F54"/>
	</linearGradient>
	<path style="fill:url(#SVGID_00000020380504622377709320000012667957857315289736_);" d="M734.9,73.3
		c101.9,9.1,182.1,94.8,182.1,199c0,110.2-89.7,199.9-199.9,199.9s-199.9-89.7-199.9-199.9c0-62.7,28.6-120.5,78.4-158.7l-4.3-5.6
		c-14.6-4.1-29.8-6.4-45.6-6.4l-5.3,0.4c-44,45.5-68.9,105.7-68.9,170.3c0,135.4,110.2,245.6,245.6,245.6s245.6-110.2,245.6-245.6
		c0-135.4-110.2-245.6-245.6-245.6c-8.4,0-44.5,0.1-52.8,1C694.3,37.9,716.6,54.1,734.9,73.3z"/>
	<g>
		
			<linearGradient id="SVGID_00000163795482283009304900000002312567828135341959_" gradientUnits="userSpaceOnUse" x1="299.9634" y1="273.5531" x2="790.2649" y2="273.5531">
			<stop  offset="0" style="stop-color:#F7E826"/>
			<stop  offset="1" style="stop-color:#ED6F54"/>
		</linearGradient>
		<path style="fill:url(#SVGID_00000163795482283009304900000002312567828135341959_);" d="M711.1,454.5
			c101.4-88.5,106.7-263.9,8.4-355.6C574.7-55.5,293.3,58.6,300.1,272.3C299.2,416.7,448,533.7,591.4,518.1
			c-25.9-13.7-47-29.3-63.5-46.8C237.2,435.2,326.5,0.6,608.6,82.5l0.2,0.3c147,42.6,186,257.8,58.5,348.2
			c0.8,1-19.4,14.5-19.4,14.5L711.1,454.5z"/>
	</g>
</g>
</svg>
