<?xml version="1.0" encoding="utf-8"?>
<!-- Generator: Adobe Illustrator 28.0.0, SVG Export Plug-In . SVG Version: 6.00 Build 0)  -->
<svg version="1.1" id="Capa_1" xmlns="http://www.w3.org/2000/svg" xmlns:xlink="http://www.w3.org/1999/xlink" x="0px" y="0px"
	 viewBox="0 0 1116 500" style="enable-background:new 0 0 1116 500;" xml:space="preserve">
<style type="text/css">
	.st0{fill:url(#SVGID_1_);}
	.st1{fill:none;}
	.st2{fill:#FFFFFF;}
	.st3{fill:url(#SVGID_00000018199782411286230760000007059900568554232766_);}
	.st4{fill:url(#SVGID_00000010300499544195078540000002105567510508705197_);}
</style>
<g>
	<g>
		<g>
			
				<linearGradient id="SVGID_1_" gradientUnits="userSpaceOnUse" x1="38.7891" y1="831.5007" x2="1077.2109" y2="831.5007" gradientTransform="matrix(1 0 0 1 0 -578)">
				<stop  offset="0" style="stop-color:#095BA6"/>
				<stop  offset="0.5" style="stop-color:#C7D8E8"/>
				<stop  offset="1" style="stop-color:#095BA6"/>
			</linearGradient>
			<path class="st0" d="M75.6,427.9l-35.8-28.5c25.1-31.6,70.9-89.2,140.5-146.7C91.9,180.4,43,111.1,38.8,105.1l37.6-26
				c1,1.5,51,72.1,141.8,144.2C319.8,149.4,462.9,83.5,654.5,83.5c251.6,0,352.6,65.4,390.4,104.3c21.1,21.8,32.9,45.6,32.3,65.3
				c-0.2,6.9-9.9,169.7-444.4,169.7c-174.9,0-315.1-68-415.3-141.1C146.6,338.5,100.4,396.7,75.6,427.9z M257,252.2
				C350.6,317.8,478,377,632.9,377c322.5,0,397.8-92.8,398.7-125.3c0.1-3-3.3-15.5-19.5-32.1c-26.4-27.2-114.2-90.4-357.5-90.4
				C482.6,129.2,351.9,186.2,257,252.2z"/>
		</g>
		<path class="st1" d="M563.8,49.3L563.8,49.3C563.9,49.3,563.9,49.3,563.8,49.3L563.8,49.3L563.8,49.3z"/>
		<path class="st2" d="M736.8,75.1l0.8,0.7C737.3,75.5,737,75.3,736.8,75.1z"/>
		
			<linearGradient id="SVGID_00000156578725732700398360000013558756998107578547_" gradientUnits="userSpaceOnUse" x1="489.5892" y1="827.2007" x2="980.7891" y2="827.2007" gradientTransform="matrix(1 0 0 1 0 -578)">
			<stop  offset="0" style="stop-color:#F7E826"/>
			<stop  offset="1" style="stop-color:#ED6F54"/>
		</linearGradient>
		<path style="fill:url(#SVGID_00000156578725732700398360000013558756998107578547_);" d="M753,50.2
			c101.9,9.1,182.1,94.8,182.1,199c0,110.2-89.7,199.9-199.9,199.9s-199.9-89.7-199.9-199.9c0-62.7,28.6-120.5,78.4-158.7l-4.3-5.6
			c-14.6-4.1-29.8-6.4-45.6-6.4l-5.3,0.4c-44,45.5-68.9,105.7-68.9,170.3c0,135.4,110.2,245.6,245.6,245.6s245.6-110.2,245.6-245.6
			S870.6,3.6,735.2,3.6c-8.4,0-44.5,0.1-52.8,1C712.4,14.8,734.7,31,753,50.2z"/>
		<g>
			
				<linearGradient id="SVGID_00000049927100698696372720000012027677089860323477_" gradientUnits="userSpaceOnUse" x1="318.068" y1="828.4623" x2="808.3647" y2="828.4623" gradientTransform="matrix(1 0 0 1 0 -578)">
				<stop  offset="0" style="stop-color:#F7E826"/>
				<stop  offset="1" style="stop-color:#ED6F54"/>
			</linearGradient>
			<path style="fill:url(#SVGID_00000049927100698696372720000012027677089860323477_);" d="M729.2,431.4
				c101.4-88.5,106.7-263.9,8.4-355.6C592.8-78.6,311.4,35.5,318.2,249.2C317.3,393.6,466.1,510.6,609.5,495
				c-25.9-13.7-47-29.3-63.5-46.8C255.3,412.1,344.6-22.5,626.7,59.4l0.2,0.3c147,42.6,186,257.8,58.5,348.2
				c0.8,1-19.4,14.5-19.4,14.5L729.2,431.4z"/>
		</g>
	</g>
</g>
</svg>
