<?xml version="1.0" encoding="utf-8"?>
<!-- Generator: Adobe Illustrator 28.0.0, SVG Export Plug-In . SVG Version: 6.00 Build 0)  -->
<svg version="1.1" id="Capa_1" xmlns="http://www.w3.org/2000/svg" xmlns:xlink="http://www.w3.org/1999/xlink" x="0px" y="0px"
	 viewBox="0 0 1991 500" style="enable-background:new 0 0 1991 500;" xml:space="preserve">
<style type="text/css">
	.st0{fill:#FFFFFF;}
</style>
<g>
	<g>
		<g>
			<path class="st0" d="M91.8,427.9L56,399.4c25.1-31.6,70.9-89.2,140.5-146.7C108.1,180.4,59.2,111.1,55,105.1l37.6-26
				c1,1.5,51,72.1,141.8,144.2C336,149.4,479.1,83.5,670.7,83.5c251.6,0,352.6,65.4,390.4,104.3c21.1,21.8,32.9,45.6,32.3,65.3
				c-0.2,6.9-9.9,169.7-444.4,169.7c-174.9,0-315.1-68-415.3-141.1C162.8,338.5,116.6,396.7,91.8,427.9z M273.2,252.2
				c93.6,65.6,221,124.8,375.9,124.8c322.5,0,397.8-92.8,398.7-125.3c0.1-3-3.3-15.5-19.5-32.1c-26.4-27.2-114.2-90.4-357.5-90.4
				C498.8,129.2,368.1,186.2,273.2,252.2z"/>
		</g>
		<path class="st0" d="M580,49.3L580,49.3C580.1,49.3,580.1,49.3,580,49.3L580,49.3L580,49.3z"/>
		<path class="st0" d="M753,75.1l0.8,0.7C753.5,75.5,753.2,75.3,753,75.1z"/>
		<path class="st0" d="M769.2,50.2c101.9,9.1,182.1,94.8,182.1,199c0,110.2-89.7,199.9-199.9,199.9s-199.9-89.7-199.9-199.9
			c0-62.7,28.6-120.5,78.4-158.7l-4.3-5.6c-14.6-4.1-29.8-6.4-45.6-6.4l-5.3,0.4c-44,45.5-68.9,105.7-68.9,170.3
			c0,135.4,110.2,245.6,245.6,245.6S997,384.6,997,249.2S886.8,3.6,751.4,3.6c-8.4,0-44.5,0.1-52.8,1
			C728.6,14.8,750.9,31,769.2,50.2z"/>
		<g>
			<path class="st0" d="M745.4,431.4c101.4-88.5,106.7-263.9,8.4-355.6C609-78.6,327.6,35.5,334.4,249.2
				C333.5,393.6,482.3,510.6,625.7,495c-25.9-13.7-47-29.3-63.5-46.8C271.5,412.1,360.8-22.5,642.9,59.4l0.2,0.3
				c147,42.6,186,257.8,58.5,348.2c0.8,1-19.4,14.5-19.4,14.5L745.4,431.4z"/>
		</g>
	</g>
	<g>
		<path class="st0" d="M1145.2,77.8h188.1v64.2h-123v62.3h123v63h-123v90.6h123v64.4h-188.1V77.8z"/>
		<path class="st0" d="M1394.6,77.8h62.9l147.4,226.7V77.8h65.6v344.5h-63.1l-147.2-226v226h-65.6V77.8z"/>
		<path class="st0" d="M1929.9,124.6l-48.6,42.9c-17.1-23.7-34.4-35.6-52.1-35.6c-8.6,0-15.6,2.3-21.1,6.9
			c-5.5,4.6-8.2,9.8-8.2,15.6c0,5.8,2,11.2,5.9,16.4c5.3,6.9,21.3,21.6,48.1,44.3c25,20.9,40.2,34.1,45.5,39.6
			c13.3,13.4,22.7,26.3,28.3,38.5c5.6,12.3,8.3,25.6,8.3,40.2c0,28.3-9.8,51.6-29.3,70c-19.5,18.4-45,27.6-76.4,27.6
			c-24.5,0-45.9-6-64.1-18c-18.2-12-33.8-30.9-46.8-56.7l55.1-33.3c16.6,30.4,35.7,45.7,57.2,45.7c11.3,0,20.7-3.3,28.4-9.8
			s11.5-14.1,11.5-22.7c0-7.8-2.9-15.6-8.7-23.4c-5.8-7.8-18.5-19.7-38.2-35.8c-37.5-30.6-61.8-54.2-72.7-70.8
			c-10.9-16.6-16.4-33.2-16.4-49.8c0-23.9,9.1-44.4,27.3-61.5c18.2-17.1,40.7-25.6,67.4-25.6c17.2,0,33.6,4,49.1,11.9
			C1895,89,1911.8,103.5,1929.9,124.6z"/>
	</g>
</g>
</svg>
